PathFileType	4	(X/Y/Z)	C:\Users\°ÂÌØÂü\Desktop\20210112\bx_n_0_901-Unnamed.trc
DataRate	CameraRate	NumFrames	NumMarkers	Units	OrigDataRate	OrigDataStartFrame	OrigNumFrames
50.00	50.00	       7	0	mm	50.00	278	       370
Frame#	Time	
		

278	5.540	-676.60529	169.57407	162.43146				-678.07007	223.80640	797.73950	-681.50238	-6.43720	806.98267	-780.68970	287.46512	875.77667	-527.20337	-75.41801	1467.74792	-533.03741	108.15214	1266.83862	-772.36005	277.41495	741.64795	-795.30402	260.12662	635.90765	-752.67865	71.45426	568.69586	-691.59717	239.98851	1053.78735	-717.14368	12.97999	524.26556	-782.38647	253.03912	572.13055	-725.35809	209.02388	537.35876	-810.46094	265.45615	494.33224	-690.75055	-2.70577	1035.75684	-647.89667	-68.23033	159.96564	-718.15527	155.08838	221.15811	-767.99835	232.06450	203.40192	-606.67065	-74.61112	155.41409	-882.70001	296.16147	144.64363	-676.08136	51.41290	162.10127	-601.28253	27.28316	169.51727	-550.39392	-23.70074	162.68098	-517.83282	-72.87903	143.14296	-590.86322	209.90532	175.31993	-652.64648	292.36731	155.72354	-615.58075	298.25259	157.55807	-554.89490	242.51053	166.42609	-528.11127	303.73230	146.49971	-434.27130	109.91521	1766.94482	-796.84015	183.53139	182.51921	-541.66016	284.39877	1472.78223	-794.98083	35.23775	172.82860	-885.38959	98.47230	1084.32886	-803.38660	-50.47732	481.82095	-763.05133	-23.26373	204.96216	-875.95935	-78.64118	141.24994	-750.19611	147.88023	573.51807	-771.25140	-62.77345	756.41754	-770.31720	-36.59979	613.62793	-772.18542	-35.41666	566.47205	-724.31049	66.16096	219.85239	-766.45648	-67.53990	874.62585	
279	5.560	-676.60529	169.57407	162.43146				-675.66919	224.33488	797.79999	-679.36017	-6.30948	806.98694	-778.66925	287.82990	875.62177	-533.71680	-75.07356	1472.64099	-535.54620	108.51372	1271.45020	-770.46893	277.17770	741.74823	-794.03229	260.02252	635.90369	-751.91089	72.01868	569.07874	-689.86633	240.48718	1054.72888	-716.10706	13.15451	524.19250	-780.68274	252.87230	571.70782	-724.71576	208.77095	537.21674	-809.84027	265.25354	494.64832	-689.17773	-2.61568	1037.12854	-648.04181	-68.43008	159.97273	-717.99152	155.16089	221.19540	-768.35602	232.04716	203.54501	-606.59875	-74.70232	155.40013	-882.58124	296.13739	144.77245	-675.86096	51.75116	162.33540	-601.30640	27.12403	169.46242	-550.28137	-23.72779	162.74835	-517.83282	-72.87903	143.14296	-591.21167	210.11497	175.25171	-652.64648	292.36731	155.72354	-615.72906	298.32358	157.68437	-554.81226	242.61005	166.23352	-528.03235	303.91241	146.59050	-445.42340	110.03535	1773.39832	-797.36493	183.22174	183.00116	-547.82574	284.59418	1477.56677	-795.05853	35.32014	173.14989	-884.37622	98.80877	1083.39587	-801.86694	-50.28354	482.01709	-763.12445	-23.19059	204.96623	-875.79388	-78.47688	141.16841	-748.71198	147.80453	574.02289	-769.77966	-62.49360	756.42401	-769.28558	-36.68821	613.64386	-771.36877	-35.19251	566.83105	-724.02057	66.15132	219.76567	-764.50726	-67.09003	874.54669	
280	5.580	-676.40070	169.36543	162.53183				-673.64355	224.30765	798.12158	-677.27905	-6.60631	807.25128	-776.01849	287.68396	875.97693	-540.09790	-74.74559	1477.71875	-537.74890	108.60356	1276.56226	-768.62518	276.92728	742.07330	-792.38196	259.81464	636.27905	-750.19623	71.67274	569.02496	-688.31927	241.31389	1056.13354	-714.86017	13.04220	524.06335	-779.87775	252.69753	572.58661	-723.22607	208.92976	537.36987	-808.81653	265.16708	495.05591	-687.63037	-2.00282	1038.02148	-647.83679	-68.37463	159.89703	-717.88568	155.30849	221.23648	-768.28589	231.91730	203.77452	-606.33282	-74.73689	155.49068	-882.67548	295.88419	144.49980	-675.86676	51.65081	162.38550	-601.25336	27.16810	169.68176	-550.56982	-23.75963	162.66518	-517.91980	-73.01032	143.17534	-591.24817	210.06487	175.37491	-652.83112	292.37247	155.56024	-615.70428	298.33621	157.69066	-554.98535	242.97272	166.28580	-528.10760	303.84308	146.24429	-456.02393	109.91533	1779.96252	-797.31195	183.10736	182.99086	-554.28314	285.23590	1482.53394	-795.05011	35.28973	173.08388	-881.84131	98.86049	1082.43970	-801.45697	-49.63742	482.07666	-762.99542	-23.29523	205.07591	-876.01019	-78.97449	141.37619	-747.58643	147.98312	574.14093	-767.59296	-61.93097	756.28052	-767.81250	-36.31699	613.57153	-769.80847	-35.20761	566.97766	-724.02057	66.15132	219.76567	-761.86285	-66.96413	875.01556	
281	5.600	-676.54889	169.54449	162.26797				-671.18726	224.56982	798.15051	-674.95355	-6.16059	807.41608	-773.32098	288.71783	876.55225	-546.41260	-74.69481	1482.14441	-540.44244	108.94070	1281.23926	-766.06683	277.81775	742.66809	-790.99243	259.90790	636.71442	-748.97491	71.92020	569.08728	-686.03717	241.03638	1056.46973	-713.69757	13.20295	523.96686	-778.47852	253.01385	572.69080	-722.39740	208.65482	537.33704	-807.95502	265.11880	495.11734	-684.99170	-2.27577	1039.21228	-648.12695	-68.48645	160.04106	-717.84204	155.27324	221.09238	-768.38116	231.93309	203.70537	-606.51086	-74.74901	155.43759	-882.51056	296.01620	144.75981	-676.08136	51.41290	162.10127	-601.27972	27.27865	169.65318	-550.37457	-23.80810	162.72630	-517.83282	-72.87903	143.14296	-591.46588	210.28586	175.41815	-652.76477	292.40921	155.69345	-615.71729	298.44226	157.82841	-555.02692	243.08231	166.53343	-528.05780	304.06482	146.68764	-466.98764	109.94675	1786.01953	-796.98633	183.42155	182.56953	-561.01270	285.70233	1486.86230	-794.94366	35.28753	172.99300	-881.13373	99.67238	1081.67932	-800.21332	-49.34204	482.55338	-762.81134	-23.25671	205.17125	-875.85522	-78.73365	141.22168	-746.44354	147.97336	574.01007	-765.60999	-61.77456	756.67267	-765.98407	-36.44043	614.05994	-768.51593	-35.11213	567.11469	-724.03345	66.26110	219.60139	-759.16345	-66.94291	875.16656	
282	5.620	-676.64587	169.52919	162.12749				-669.00970	224.56757	797.95636	-672.60468	-6.36143	807.36322	-770.54230	289.32330	876.33301	-553.03308	-73.94064	1486.57629	-542.88245	109.31402	1285.86377	-763.54309	278.17422	743.15619	-789.41028	259.85867	636.91650	-746.70544	72.21577	569.27515	-684.38745	241.52695	1057.75391	-712.18573	13.41980	523.78796	-777.38416	252.62636	573.08588	-721.09216	208.99545	537.38812	-807.02545	264.75351	495.25226	-683.21552	-1.54564	1040.73682	-648.14044	-68.49643	160.19312	-717.46191	154.96497	220.74001	-768.24719	232.01808	204.03224	-606.59412	-74.71881	155.62599	-882.61456	296.20667	144.73726	-676.08136	51.41290	162.10127	-601.30811	27.29548	169.68967	-550.22919	-24.02710	162.71613	-517.88171	-72.99678	143.09013	-591.51306	210.49609	175.38808	-652.92535	292.36359	155.72786	-615.71613	298.21753	157.54660	-555.07007	243.03688	166.49756	-528.09027	303.89276	146.53261	-477.50870	110.30756	1791.62463	-796.93567	183.35852	182.52589	-567.17261	285.60916	1491.00366	-794.91223	35.41486	173.37698	-879.60461	100.37051	1080.57654	-799.01624	-49.34972	482.91217	-762.82898	-23.20489	205.17845	-875.86578	-78.57480	141.12534	-744.67236	147.65092	574.79272	-764.00916	-61.79392	757.51202	-764.71790	-36.08247	614.12744	-766.99634	-34.88658	567.54022	-723.82739	66.32096	219.48904	-756.75409	-66.99275	875.86743	
283	5.640	-676.62897	169.40663	162.19945				-666.40753	225.22003	798.24969	-670.26910	-5.98290	807.72559	-768.20441	289.23792	876.31476	-559.27911	-74.42522	1490.66309	-545.27484	109.31064	1290.63428	-761.95453	278.27972	742.93677	-787.13074	259.51682	637.16003	-745.85632	72.31215	569.51935	-682.54822	242.16393	1058.74487	-710.72119	13.54227	524.05249	-775.89301	252.96815	572.90393	-719.74194	208.82025	537.28308	-806.05731	265.15295	495.57059	-681.47888	-1.58644	1042.20044	-648.06177	-68.45625	160.12004	-717.34888	154.98444	220.72258	-768.12781	231.74619	204.02477	-606.44965	-74.75953	155.58006	-882.35516	296.11765	144.50859	-675.68036	51.78842	162.02434	-601.27191	27.26059	169.68399	-550.25043	-23.82371	162.65504	-517.83282	-72.87903	143.14296	-591.46722	210.28682	175.29213	-652.81860	292.18253	155.61034	-615.80450	298.38644	157.75087	-555.04749	242.99712	166.34785	-528.09338	303.84622	146.42937	-487.89322	110.55440	1797.19482	-797.23962	182.96257	183.06979	-573.76025	286.32553	1495.09399	-794.82831	35.51580	173.25940	-878.33691	100.75648	1079.69824	-798.53564	-48.33206	483.37149	-762.62799	-23.09053	205.26550	-875.99792	-78.69180	141.55168	-743.16589	148.50940	574.26953	-761.69391	-60.94910	757.04913	-762.79663	-35.88615	614.35907	-765.38391	-34.45417	567.68610	-723.82739	66.32096	219.48904	-754.63690	-66.28507	875.95636	
284	5.660	-676.40088	169.24637	162.25793				-663.92804	224.95334	798.11823	-667.73499	-6.05638	807.84393	-765.38049	289.75723	876.59479	-565.69165	-74.12820	1495.05298	-548.06903	109.71497	1295.05676	-759.42120	278.27798	743.47516	-785.17938	260.01047	637.66248	-743.29132	72.72867	569.47162	-679.72821	242.66170	1059.23438	-709.03070	13.66226	524.03693	-774.31293	252.66168	572.83179	-717.90002	209.01930	537.57922	-804.45508	264.90396	495.58862	-679.58716	-1.03045	1043.47644	-647.91168	-68.40602	160.49178	-717.34888	154.98444	220.72258	-768.72186	231.53915	203.66318	-606.61530	-74.85069	155.45216	-882.28094	296.15384	144.52382	-675.84155	51.90657	162.03708	-601.23920	27.12710	169.69310	-550.18365	-24.03123	162.65656	-517.94177	-72.92817	143.09164	-591.34711	210.11859	175.35468	-652.89978	292.42767	155.55904	-615.72906	298.32358	157.68437	-555.07251	242.84659	166.45830	-528.08539	303.91705	146.46527	-498.18549	110.71292	1802.44312	-797.23761	182.96782	183.04283	-579.64539	286.34549	1499.20483	-794.72272	35.79260	173.27902	-876.36249	101.36322	1078.73047	-797.04443	-48.05139	483.51025	-762.56787	-22.35184	205.25607	-875.86145	-78.67005	141.04742	-742.00781	148.42204	574.59515	-759.99103	-60.43043	757.27539	-761.11890	-35.52162	614.62488	-764.15784	-34.30625	568.26422	-723.80060	66.45684	219.15651	-752.40002	-65.22589	875.22266	
